
<svg xmlns="http://www.w3.org/2000/svg" xmlns:xlink="http://www.w3.org/1999/xlink" viewBox="0 0 86 86" width="96px" height="96px">
<g id="surface14622819">
<path style=" stroke:none;fill-rule:nonzero;fill:rgb(100%,100%,100%);fill-opacity:1;" d="M 85.5 25.671875 C 83.519531 28.628906 81.011719 31.230469 78.125 33.316406 C 78.152344 33.949219 78.167969 34.585938 78.167969 35.226562 C 78.167969 54.746094 63.316406 77.253906 36.144531 77.253906 C 27.800781 77.253906 16.929688 74.332031 13.5 70.621094 C 14.660156 70.757812 15.835938 70.828125 17.027344 70.828125 C 23.949219 70.828125 30.316406 68.464844 35.371094 64.503906 C 28.90625 64.382812 23.453125 60.109375 21.574219 54.242188 C 24.511719 54.703125 28.242188 53.988281 28.242188 53.988281 C 28.242188 53.988281 16.695312 52.003906 16.394531 39.320312 C 19.734375 41.257812 23.085938 41.164062 23.085938 41.164062 C 23.085938 41.164062 16.421875 37.066406 16.515625 28.875 C 16.570312 24.042969 18.511719 21.445312 18.511719 21.445312 C 31.132812 36.984375 48.960938 36.878906 48.960938 36.878906 C 48.960938 36.878906 48.578125 34.671875 48.578125 33.515625 C 48.578125 25.359375 55.191406 18.742188 63.347656 18.742188 C 67.597656 18.742188 71.433594 20.539062 74.128906 23.410156 C 77.496094 22.746094 80.65625 21.515625 83.511719 19.824219 C 82.222656 24.984375 77.015625 27.996094 77.015625 27.996094 C 77.015625 27.996094 81.472656 27.503906 85.5 25.671875 Z M 36.210938 71.253906 C 48.710938 71.820312 70.945312 61.664062 72.167969 35.226562 C 72.179688 34.988281 72.214844 34.558594 72.195312 34.167969 C 72.164062 33.667969 72.414062 33.335938 72.621094 33.117188 C 72.964844 32.753906 73.332031 32.316406 73.6875 31.660156 C 73.984375 31.105469 73.800781 30.871094 73.433594 30.804688 C 73.183594 30.761719 72.921875 30.699219 72.632812 30.636719 C 72.121094 30.523438 71.898438 30.042969 72.140625 29.554688 C 72.304688 29.222656 72.523438 28.761719 72.6875 28.285156 C 72.847656 27.8125 72.640625 27.703125 72.28125 27.769531 C 71.984375 27.820312 71.640625 27.882812 71.332031 27.941406 C 70.855469 28.027344 70.363281 27.933594 69.894531 27.398438 C 68.085938 25.316406 66.128906 24.746094 63.347656 24.746094 C 58.476562 24.746094 54.574219 28.679688 54.574219 33.515625 C 54.574219 34.847656 54.917969 36.449219 55.160156 37.996094 C 55.609375 40.882812 54.328125 43.605469 49.902344 43.261719 C 43.402344 42.753906 33.394531 41.332031 25.78125 35.710938 C 26.539062 37.210938 28.359375 39.523438 29.800781 41.261719 C 30.925781 42.613281 30.574219 44.703125 29.125 45.386719 C 28.398438 45.726562 27.515625 46.011719 26.5 46.195312 C 29.160156 48.347656 32.21875 49.746094 34.554688 50.738281 C 37.488281 51.980469 38.292969 54 36.492188 56.015625 C 35.847656 56.738281 35.011719 57.46875 33.929688 58.117188 C 35.230469 59.015625 37.410156 59.765625 39.898438 60.171875 C 42.414062 60.582031 44.070312 63.34375 41.484375 66.769531 C 40.226562 68.4375 38.425781 70.039062 36.210938 71.253906 Z M 36.210938 71.253906 "/>
</g>
</svg>
